<svg width="16" height="16" viewBox="0 0 16 16" fill="none" xmlns="http://www.w3.org/2000/svg">
<g clip-path="url(#clip0_56_341)">
<path d="M8 16C10.1217 16 12.1566 15.1571 13.6569 13.6569C15.1571 12.1566 16 10.1217 16 8C16 5.87827 15.1571 3.84344 13.6569 2.34315C12.1566 0.842855 10.1217 0 8 0C5.87827 0 3.84344 0.842855 2.34315 2.34315C0.842855 3.84344 0 5.87827 0 8C0 10.1217 0.842855 12.1566 2.34315 13.6569C3.84344 15.1571 5.87827 16 8 16ZM11.707 6.707L7.704 10.707C7.61113 10.8 7.50084 10.8737 7.37944 10.9241C7.25804 10.9744 7.12792 11.0003 6.9965 11.0003C6.86508 11.0003 6.73496 10.9744 6.61356 10.9241C6.49216 10.8737 6.38187 10.8 6.289 10.707L4.292 8.707C4.10449 8.51923 3.99926 8.26466 3.99944 7.99929C3.99963 7.73393 4.10523 7.47951 4.293 7.292C4.48077 7.10449 4.73534 6.99926 5.00071 6.99944C5.26607 6.99963 5.52049 7.10523 5.708 7.293L6.998 8.586L10.293 5.293C10.4816 5.11084 10.7342 5.01005 10.9964 5.01233C11.2586 5.0146 11.5094 5.11977 11.6948 5.30518C11.8802 5.49059 11.9854 5.7414 11.9877 6.0036C11.99 6.2658 11.8892 6.5184 11.707 6.707Z" fill="black"/>
</g>
<defs>
<clipPath id="clip0_56_341">
<rect width="16" height="16" fill="white"/>
</clipPath>
</defs>
</svg>
