<svg width="32" height="33" viewBox="0 0 32 33" fill="none" xmlns="http://www.w3.org/2000/svg">
<path d="M4 0.5C2.93913 0.5 1.92172 0.921427 1.17157 1.67157C0.421427 2.42172 0 3.43913 0 4.5L0 28.5C0 29.5609 0.421427 30.5783 1.17157 31.3284C1.92172 32.0786 2.93913 32.5 4 32.5H28C29.0609 32.5 30.0783 32.0786 30.8284 31.3284C31.5786 30.5783 32 29.5609 32 28.5V4.5C32 3.43913 31.5786 2.42172 30.8284 1.67157C30.0783 0.921427 29.0609 0.5 28 0.5L4 0.5ZM5 10.5H27C27.2652 10.5 27.5196 10.6054 27.7071 10.7929C27.8946 10.9804 28 11.2348 28 11.5C28 11.7652 27.8946 12.0196 27.7071 12.2071C27.5196 12.3946 27.2652 12.5 27 12.5H5C4.73478 12.5 4.48043 12.3946 4.29289 12.2071C4.10536 12.0196 4 11.7652 4 11.5C4 11.2348 4.10536 10.9804 4.29289 10.7929C4.48043 10.6054 4.73478 10.5 5 10.5ZM8 17.5C8 17.2348 8.10536 16.9804 8.29289 16.7929C8.48043 16.6054 8.73478 16.5 9 16.5H23C23.2652 16.5 23.5196 16.6054 23.7071 16.7929C23.8946 16.9804 24 17.2348 24 17.5C24 17.7652 23.8946 18.0196 23.7071 18.2071C23.5196 18.3946 23.2652 18.5 23 18.5H9C8.73478 18.5 8.48043 18.3946 8.29289 18.2071C8.10536 18.0196 8 17.7652 8 17.5ZM12 23.5C12 23.2348 12.1054 22.9804 12.2929 22.7929C12.4804 22.6054 12.7348 22.5 13 22.5H19C19.2652 22.5 19.5196 22.6054 19.7071 22.7929C19.8946 22.9804 20 23.2348 20 23.5C20 23.7652 19.8946 24.0196 19.7071 24.2071C19.5196 24.3946 19.2652 24.5 19 24.5H13C12.7348 24.5 12.4804 24.3946 12.2929 24.2071C12.1054 24.0196 12 23.7652 12 23.5Z" fill="#0074E0"/>
</svg>
