<svg width="16" height="16" viewBox="0 0 16 16" fill="none" xmlns="http://www.w3.org/2000/svg">
<path d="M2.125 6H3C3.06875 6 3.125 5.94375 3.125 5.875V3.125H5.875C5.94375 3.125 6 3.06875 6 3V2.125C6 2.05625 5.94375 2 5.875 2H3.0625C2.475 2 2 2.475 2 3.0625V5.875C2 5.94375 2.05625 6 2.125 6ZM10.125 3.125H12.875V5.875C12.875 5.94375 12.9312 6 13 6H13.875C13.9438 6 14 5.94375 14 5.875V3.0625C14 2.475 13.525 2 12.9375 2H10.125C10.0562 2 10 2.05625 10 2.125V3C10 3.06875 10.0562 3.125 10.125 3.125ZM5.875 12.875H3.125V10.125C3.125 10.0562 3.06875 10 3 10H2.125C2.05625 10 2 10.0562 2 10.125V12.9375C2 13.525 2.475 14 3.0625 14H5.875C5.94375 14 6 13.9438 6 13.875V13C6 12.9312 5.94375 12.875 5.875 12.875ZM13.875 10H13C12.9312 10 12.875 10.0562 12.875 10.125V12.875H10.125C10.0562 12.875 10 12.9312 10 13V13.875C10 13.9438 10.0562 14 10.125 14H12.9375C13.525 14 14 13.525 14 12.9375V10.125C14 10.0562 13.9438 10 13.875 10ZM14.125 7.4375H1.875C1.80625 7.4375 1.75 7.49375 1.75 7.5625V8.4375C1.75 8.50625 1.80625 8.5625 1.875 8.5625H14.125C14.1938 8.5625 14.25 8.50625 14.25 8.4375V7.5625C14.25 7.49375 14.1938 7.4375 14.125 7.4375Z" fill="white"/>
</svg>
